<?xml version="1.0" encoding="UTF-8"?><svg id="Layer_2" xmlns="http://www.w3.org/2000/svg" viewBox="0 0 167.63 132.4"><g id="Set1"><path d="M137.31,79.02c1,3,4.35,10.46,5,17,.56,5.59,.36,10.42-.29,13.86-1.38,7.33-6.28,14.05-11.24,16.99-8.48,5.03-20.79,3.83-35.69-4.97-26.08-15.4-47.25-47.72-47.27-72.17-.01-9.63,3.26-16.61,8.82-20.59-4.46,3.82-7.04,9.98-7.03,18.24,.03,22.77,19.73,52.86,44.01,67.2,21.75,12.84,42.72,9.04,43.3-8.67,.39-11.89-2.61-19.89-3.61-23.89" fill="#ee792f"/><path d="M139.31,85.02C128.31,48.02,92.25,12.61,61.33,4.9,30.41-2.81,14.5,19.85,25.79,55.5c.73,2.31,2.6,7.22,3.52,9.52l5-3c-9.01-31.76,3.67-54.27,31.73-47.27,41.2,10.27,60.96,55.66,66.27,66.27,1,2,4,10.12,4,11,0-1,2-5.33,3-7Z" fill="#ee792f"/><path d="M36.96,71.89c-.89,.75-2.03,1.75-3.05,2.63,13.06,25.29,35.99,48.03,58.76,57.88-22.64-10.84-44.99-34.93-55.71-60.51Z" fill="#ee792f"/></g><g id="Layer_1-2"><polygon points="112.61 3.97 162.61 0 104.84 19.17 113.2 10.63 112.61 3.97" fill="#038e7d"/><path d="M122.53,31.36c-6.73,1.22-13.69,2.95-20.7,5.11,2.98-.72,5.94-1.34,8.85-1.87,38.71-7.01,54.76,6.19,35.85,29.49-2.64,3.25-5.83,6.52-9.45,9.76l2.4,6.26c8.12-5.99,15-12.22,19.98-18.37,19.48-24,2.95-37.6-36.93-30.38Z" fill="#ee792f"/><path d="M129.93,79.94c-22.95,17.48-58.14,33.66-87.74,39.03-2.91,.53-5.69,.94-8.34,1.24,5.34-.08,11.4-.71,18.12-1.93,26.65-4.83,56.97-17.74,79.97-32.94l-2.02-5.4Z" fill="#ee792f"/><path d="M10.15,86.12C34.33,56.32,94.07,24.89,143.58,15.92c7.9-1.43,15.05-2.2,21.41-2.37-3.67,.39-7.55,.95-11.63,1.69C105.03,23.99,46.7,54.68,23.09,83.77c-23.61,29.1-3.57,45.58,44.77,36.82,4.08-.74,8.23-1.63,12.43-2.67-8.23,2.48-16.39,4.48-24.28,5.91-49.51,8.97-70.04-7.91-45.85-37.71Z" fill="#ee792f"/></g></svg>